# xmcd
#
# Track frame offsets: 
#        150
#        18803
#        36788
#        54810
#        71920
#        81315
#        90448
#        104515
#        117628
#        140033
#        154415
#
# Disc length: 2230 seconds
#
# Revision: 2
# Processed by: cddbd v1.4PL0 Copyright (c) Steve Scherf et al.
# Submitted via: ExactAudioCopy v0.90b3
#
DISCID=9408b40b
DTITLE=Marty Robbins - Lost And Found
DYEAR=1900
DGENRE=Country
TTITLE0=Big Irons (Duet With Michael Martin Murphey)
TTITLE1=Texas I Love You
TTITLE2=I Need You To Hold Me Together
TTITLE3=Til Hell Freezes Over
TTITLE4=Some Times Love
TTITLE5=Our Last Goodbye
TTITLE6=An Old Friend Misses You
TTITLE7=The Beginning Of Goodbye
TTITLE8=Twenty Dollar Jim
TTITLE9=A Favorite Song
TTITLE10=Sweet Country Music
EXTD=
EXTT0=
EXTT1=
EXTT2=
EXTT3=
EXTT4=
EXTT5=
EXTT6=
EXTT7=
EXTT8=
EXTT9=
EXTT10=
PLAYORDER=
